<?xml version="1.0" standalone="no"?>
<!DOCTYPE svg PUBLIC "-//W3C//DTD SVG 20010904//EN"
 "http://www.w3.org/TR/2001/REC-SVG-20010904/DTD/svg10.dtd">
<svg version="1.0" xmlns="http://www.w3.org/2000/svg"
 width="700.000000pt" height="700.000000pt" viewBox="0 0 700.000000 700.000000"
 preserveAspectRatio="xMidYMid meet">
<metadata>
Created by potrace 1.11, written by Peter Selinger 2001-2013
</metadata>
<g transform="translate(0.000000,700.000000) scale(0.100000,-0.100000)"
fill="#000000" stroke="none">
<path d="M3298 6995 c-1 -1 -41 -5 -88 -9 -178 -12 -388 -47 -581 -96 -215
-55 -462 -147 -666 -247 -122 -60 -342 -186 -428 -246 -56 -39 -270 -200 -275
-208 -3 -3 -25 -23 -50 -44 -84 -69 -229 -214 -365 -365 -63 -70 -174 -218
-253 -335 -81 -122 -88 -134 -172 -285 -220 -399 -367 -891 -408 -1370 -9
-110 -8 -503 1 -600 12 -109 27 -226 41 -295 2 -11 6 -36 10 -55 49 -273 158
-602 284 -859 378 -774 1003 -1369 1787 -1703 114 -48 266 -102 430 -151 111
-33 354 -83 458 -93 34 -3 65 -8 68 -9 15 -10 227 -20 409 -20 187 0 339 7
430 21 144 21 295 48 345 61 33 8 67 16 75 18 101 20 358 107 514 172 122 51
338 160 394 198 20 14 40 25 45 25 4 0 13 5 20 10 7 6 64 45 127 87 108 71
250 178 330 248 119 104 294 279 365 365 21 25 41 47 44 50 4 3 45 55 91 115
405 533 651 1169 708 1830 14 161 7 540 -12 695 -2 19 -7 58 -10 86 -4 28 -8
59 -10 70 -2 10 -11 60 -21 109 -98 525 -338 1055 -671 1480 -79 102 -106 133
-204 239 -370 398 -819 699 -1335 893 -182 69 -442 141 -600 167 -33 5 -224
32 -295 42 -47 6 -526 15 -532 9z m447 -589 c86 -7 145 -15 210 -26 28 -5 66
-11 85 -14 42 -6 166 -36 273 -66 198 -55 430 -154 647 -276 49 -27 272 -174
280 -184 3 -3 23 -19 45 -35 22 -17 42 -32 45 -35 3 -3 39 -34 80 -69 500
-430 864 -1076 964 -1711 25 -163 26 -172 33 -275 17 -253 4 -504 -38 -730
-26 -144 -28 -151 -55 -250 -176 -633 -547 -1177 -1071 -1571 -262 -197 -673
-403 -913 -459 -8 -2 -58 -15 -110 -29 -106 -28 -229 -53 -305 -62 -27 -3 -56
-7 -63 -9 -51 -17 -417 -24 -582 -11 -608 45 -1211 297 -1674 698 -75 65 -255
247 -316 319 -201 237 -384 542 -489 814 -24 61 -47 120 -51 132 -12 29 -67
221 -74 253 -2 14 -14 68 -25 120 -11 52 -23 120 -26 150 -4 30 -8 61 -11 69
-22 67 -22 572 0 701 2 14 7 47 11 73 4 27 8 59 11 70 16 84 26 135 29 153 34
165 144 470 232 647 74 148 222 387 300 482 164 202 306 347 467 479 88 72
270 206 280 206 1 0 45 26 97 57 111 67 293 154 439 211 88 34 286 95 349 107
9 1 34 8 56 14 22 5 56 13 75 16 19 3 46 8 60 10 57 11 181 26 270 31 52 4 96
7 97 8 5 4 300 -2 368 -8z"/>
<path d="M2425 4663 c-154 -17 -316 -153 -360 -301 -101 -341 205 -649 545
-548 274 82 390 416 229 660 -87 131 -252 206 -414 189z"/>
<path d="M4441 4658 c-115 -20 -254 -122 -304 -223 -39 -80 -50 -125 -50 -206
1 -155 72 -283 206 -370 120 -78 288 -86 422 -20 228 113 310 408 172 623 -95
148 -274 227 -446 196z"/>
<path d="M1818 2858 l-68 -70 22 -32 c111 -158 177 -236 322 -381 138 -137
220 -205 358 -298 182 -121 384 -212 589 -266 115 -29 135 -33 244 -48 73 -9
359 -9 435 1 261 33 543 134 769 275 262 163 537 428 729 703 l33 48 -71 71
-72 72 -57 -41 c-358 -260 -682 -408 -1041 -477 -246 -47 -638 -56 -890 -19
-25 3 -56 8 -70 10 -20 2 -77 13 -100 19 -8 2 -83 18 -98 21 -7 1 -65 19 -130
39 -260 82 -475 193 -724 373 -55 39 -103 72 -107 72 -3 -1 -36 -33 -73 -72z"/>
</g>
</svg>
